<svg width="24" height="24" viewBox="0 0 24 24" fill="none" xmlns="http://www.w3.org/2000/svg">
<path d="M19 10.5V10C19 6.229 19 4.343 17.828 3.172C16.656 2.001 14.771 2 11 2C7.229 2 5.343 2 4.172 3.172C3.001 4.344 3 6.229 3 10V14.5C3 17.787 3 19.431 3.908 20.538C4.07467 20.7407 4.25933 20.9253 4.462 21.092C5.57 22 7.212 22 10.5 22M7 7H15M7 11H11" stroke="white" stroke-width="2" stroke-linecap="round" stroke-linejoin="round"/>
<path d="M21 18C21 18.75 20.79 19.46 20.42 20.06C19.73 21.22 18.46 22 17 22C15.54 22 14.27 21.22 13.58 20.06C13.21 19.46 13 18.75 13 18C13 15.79 14.79 14 17 14C19.21 14 21 15.79 21 18Z" stroke="white" stroke-width="2" stroke-miterlimit="10" stroke-linecap="round" stroke-linejoin="round"/>
<path d="M18.4917 17.9795H15.5117" stroke="white" stroke-width="1.8" stroke-miterlimit="10" stroke-linecap="round" stroke-linejoin="round"/>
<path d="M17 16.5195V19.5095" stroke="white" stroke-width="1.8" stroke-miterlimit="10" stroke-linecap="round" stroke-linejoin="round"/>
</svg>
